PathFileType	4	(X/Y/Z)	D:\TRACE\v60_Jaco2_6-2-23\JustBodyDRS_Motion3_8-platform.trc
DataRate	CameraRate	NumFrames	NumMarkers	Units	OrigDataRate	OrigDataStartFrame	OrigNumFrames
100.00	100.00	      35	5	mm	100.00	5251	      7000
Frame#	Time	Left_Front			Right_Front			Left_Aft			Right_Aft			Post			
		X1	Y1	Z1	X2	Y2	Z2	X3	Y3	Z3	X4	Y4	Z4	X5	Y5	Z5	

5251	52.500	-787.07379	-17.26508	-656.39929	784.25568	-19.00594	-634.36090	-717.86023	29.23293	476.18817	696.86145	30.56953	581.57422	9.76550	1266.23059	-1022.39130	
5252	52.510	-786.22064	-17.88527	-656.99323	784.44196	-19.47929	-634.47119	-717.55383	29.50084	476.13672	697.37842	31.09225	581.45477	10.09482	1265.29700	-1023.60162	
5253	52.520	-785.93097	-18.19723	-657.07294	784.89972	-19.98011	-634.48334	-717.25195	29.76034	476.01471	697.49084	31.22361	581.38019	10.44830	1264.50586	-1024.73584	
5254	52.530	-785.57800	-18.58287	-657.29822	785.22791	-20.39479	-634.71783	-716.93420	29.88638	475.99136	698.04260	31.71865	581.27454	10.67633	1263.85315	-1025.71692	
5255	52.540	-785.54340	-18.86163	-657.40588	785.57605	-20.68687	-634.81677	-716.73566	30.70955	475.56387	698.20941	31.79195	581.11749	11.11744	1263.36121	-1026.58862	
5256	52.550	-784.88507	-19.68036	-657.05811	785.86005	-21.16043	-634.96033	-716.39539	30.95695	475.46506	698.60345	32.48698	581.14618	11.65480	1262.58240	-1027.56763	
5257	52.560	-784.98022	-20.35559	-657.58441	786.08325	-21.58480	-634.98663	-716.20752	31.13946	475.42883	698.86908	32.75823	580.93646	11.60357	1261.89368	-1028.30908	
5258	52.570	-784.35925	-20.92492	-657.63263	786.50690	-22.18248	-635.01624	-715.73816	31.29815	475.28174	699.12360	33.13286	580.77850	12.02999	1261.17798	-1029.14221	
5259	52.580	-783.94202	-21.29347	-657.37964	786.77972	-22.65571	-635.00616	-715.27563	31.70530	475.05350	699.73596	33.58641	580.75494	12.43391	1260.60913	-1029.92041	
5260	52.590	-783.63879	-21.71540	-657.37677	787.24756	-23.11208	-635.09949	-714.91705	32.09572	475.06152	699.85126	33.81806	580.68250	12.90671	1259.85303	-1030.70410	
5261	52.600	-783.35181	-21.98381	-657.60364	787.53717	-23.46326	-635.26178	-714.48230	32.31807	475.01276	699.93872	33.96417	580.65552	13.14529	1259.12439	-1031.47668	
5262	52.610	-783.04437	-22.63275	-658.06262	787.78735	-23.90081	-635.25848	-714.17346	32.43355	474.96814	700.49432	34.54094	580.31635	13.39399	1258.64038	-1032.19910	
5263	52.620	-782.61536	-22.64672	-657.92688	788.14319	-24.36802	-635.34058	-713.88147	32.68629	474.82303	700.97479	34.96288	580.19476	14.06913	1258.02563	-1033.00659	
5264	52.630	-782.37134	-22.85247	-658.05597	788.55359	-24.65087	-635.38824	-713.54364	32.86009	474.75912	701.25000	35.18512	580.06311	14.35060	1257.00867	-1033.81409	
5265	52.640	-781.76367	-23.43016	-658.06458	788.93085	-24.91611	-635.53064	-713.11621	33.11333	474.66785	701.73700	35.54962	580.12097	14.44829	1256.60437	-1035.03101	
5266	52.650	-781.29608	-23.98335	-658.21521	789.47284	-25.34527	-635.57361	-712.72430	33.29131	474.56754	702.10571	35.67742	580.01306	14.83195	1256.30725	-1035.96887	
5267	52.660	-781.09686	-24.06558	-658.06647	789.77460	-25.61202	-635.71997	-712.24219	33.59256	474.36884	702.30524	35.86248	579.87457	15.39285	1255.71997	-1036.93750	
5268	52.670	-780.75116	-24.34542	-657.85284	790.21185	-25.85388	-635.65137	-711.81885	33.83080	474.35605	702.55096	35.98512	579.40729	15.76798	1254.81543	-1037.66956	
5269	52.680	-780.15741	-24.68157	-657.91107	790.47107	-26.28915	-635.76447	-711.55676	34.03418	474.34497	702.91870	36.40991	579.34607	16.22317	1254.43005	-1038.50830	
5270	52.690	-779.83990	-25.10301	-658.26892	790.81543	-26.81177	-635.73798	-711.41907	34.17257	474.39340	703.45081	36.75043	579.25342	16.85634	1254.06433	-1039.11084	
5271	52.700	-779.48071	-25.60139	-658.48059	791.17255	-27.25646	-635.82635	-710.99408	34.40505	474.29675	703.66663	36.96095	578.96814	16.86780	1253.66797	-1039.49658	
5272	52.710	-779.22992	-25.91887	-658.59253	791.63666	-27.50045	-635.90063	-710.57983	34.81808	474.14105	704.37109	37.28616	579.48303	17.24217	1252.85229	-1040.21069	
5273	52.720	-778.78839	-26.42485	-658.64728	792.03888	-27.68644	-635.95483	-710.13037	35.13869	474.04181	704.84235	37.23683	579.25403	17.99065	1252.36804	-1040.56323	
5274	52.730	-778.67023	-26.00920	-658.55426	792.53851	-28.10972	-635.96594	-709.76825	35.33439	473.85651	705.16797	37.55148	578.89966	18.38003	1251.93274	-1040.82092	
5275	52.740	-778.23914	-26.41936	-658.64636	792.95837	-28.40948	-636.03290	-709.53125	35.62038	473.82236	705.55695	37.80384	578.97156	18.70060	1251.57166	-1041.45715	
5276	52.750	-776.98224	-27.93933	-658.88885	793.43213	-28.55478	-635.97791	-709.06506	35.75178	473.61365	705.79248	37.81260	578.76447	19.03362	1251.00732	-1042.23706	
5277	52.760	-776.42352	-28.06299	-658.67780	793.66614	-28.71299	-636.05182	-708.79602	35.92963	473.43896	706.12659	38.02494	578.59357	18.95819	1250.45642	-1042.52295	
5278	52.770	-775.91229	-28.31453	-658.71722	794.02924	-29.02540	-636.12244	-708.31647	36.13379	473.42526	706.93304	38.64202	579.02716	19.71434	1250.19067	-1043.46936	
5279	52.780	-775.67590	-28.55891	-658.74182	794.48328	-29.18686	-636.11243	-707.81042	36.23506	473.48520	707.43121	38.64903	578.89526	20.29967	1249.95825	-1044.13623	
5280	52.790	-775.52661	-28.63584	-658.77130	794.81940	-29.32142	-636.14172	-707.41864	36.23572	473.44232	707.47961	38.65443	578.78418	20.36776	1249.87769	-1044.65796	
5281	52.800	-775.12909	-28.70054	-658.93341	795.24554	-29.48936	-636.18341	-707.13159	36.31837	473.39386	707.68384	38.73566	578.72150	20.80124	1249.73352	-1045.21936	
5282	52.810	-774.62640	-28.61624	-659.13550	795.72607	-29.64944	-636.33752	-706.72394	36.40125	473.39862	707.98273	38.80089	578.63025	21.30962	1249.55481	-1045.53455	
5283	52.820	-774.27411	-28.76265	-659.14209	796.15656	-29.71256	-636.20148	-706.30865	36.53267	473.43713	708.70471	38.99605	578.67377	21.71077	1249.42981	-1045.78625	
5284	52.830	-773.95459	-29.02661	-658.90271	796.48883	-29.81944	-636.29181	-705.90790	36.66448	473.46396	709.24994	39.26879	578.76617	21.65877	1248.99951	-1045.44458	
5285	52.840	-773.46454	-29.19549	-658.68170	796.81592	-29.95299	-636.35211	-705.41144	36.59548	473.42239	709.58423	39.41461	578.81763	22.33825	1248.70081	-1045.48389	
